# xmcd
#
# Track frame offsets:
#	150
#	19738
#	38880
#	51422
#	68193
#	87576
#	107164
#	126306
#	138848
#	155619
#
# Disc length: 2333 seconds
#
# Revision: 1
# Processed by: cddbd v1.5.2PL0 Copyright (c) Steve Scherf et al.
# Submitted via: audiograbber 1.83.01
#
DISCID=8d091b0a
DTITLE=BCI - Karaoke Country Guys
DYEAR=2005
DGENRE=Country
TTITLE0=Kenny Chesney - Anything But Mine (Vocal Guide)
TTITLE1=Montgomery Gentry - Gone (Vocal Guide)
TTITLE2=Josh Gracin - Nothin' To Lose (Vocal Guide)
TTITLE3=Toby Keith - Honky Tonk U (Vocal Guide)
TTITLE4=Keith Urban - Making Memories of Us (Vocal Guide)
TTITLE5=Kenny Chesney - Anything But Mine
TTITLE6=Montgomery Gentry - Gone
TTITLE7=Josh Gracin - Nothin' To Lose
TTITLE8=Toby Keith - Honky Tonk U
TTITLE9=Keith Urban - Making Memories of Us
EXTD=
EXTT0=
EXTT1=
EXTT2=
EXTT3=
EXTT4=
EXTT5=
EXTT6=
EXTT7=
EXTT8=
EXTT9=
PLAYORDER=
